<svg fill="none" height="45" viewBox="0 0 196 45" width="196" xmlns="http://www.w3.org/2000/svg"><path clip-rule="evenodd" d="m0 45h40.9739c3.13 0 5.6766-2.4525 5.6624-5.4838v-39.5162h-38.88255c-4.28235 0-7.75375 3.36191-7.75375 7.50919zm6.35525-33.1963h24.43405c6.0056 0 10.8754 4.3119 10.8896 9.6168v1.5714c0 5.2044-4.7704 9.4282-10.6482 9.4282h-24.67545v-14.2806h4.51485v10.3333h19.8766c3.6204 0 6.5451-2.5896 6.5451-5.7952v-1.0937c0-3.2056-2.9389-5.8078-6.5593-5.8078h-18.3291-1.5333-4.51485z" fill="#e82329" fill-rule="evenodd"/><g fill="#fff"><path d="m191.298 11.4274h-22.744c-2.357 0-4.274 1.6971-4.274 3.7838h13.545v16.8703h4.5v-16.8577h13.261c-.014-2.0993-1.931-3.7964-4.288-3.7964z"/><path d="m56.549 11.4274c-2.0586 0-3.7339 1.4833-3.7339 3.3187v.6411 4.5759 1.3828c0 1.4205 1.3061 2.577 2.9105 2.577h1.5617 25.6693v4.2113h-30.1415v3.9598h30.1273 1.4055c1.6895 0 3.0667-1.2193 3.0667-2.7153v-1.2445-4.2113-1.5336c0-1.3451-1.221-2.4262-2.7401-2.4262h-1.7321-25.6693v-4.5759h30.1273v-3.9598h-30.1273z"/><path d="m113.396 11.5285h-11.897c-6.4176 0-11.6708 4.6512-11.6708 10.3333s5.2532 10.3334 11.6708 10.3334h11.897c6.418 0 11.671-4.6513 11.671-10.3334-.015-5.6821-5.268-10.3333-11.671-10.3333zm7.326 10.3207c0 3.8845-3.592 7.0649-7.979 7.0649h-10.62c-4.3867 0-7.9787-3.1804-7.9787-7.0649 0-3.8844 3.592-7.0648 7.9787-7.0648h10.62c4.401.0125 7.979 3.1804 7.979 7.0648z"/><path d="m126.401 16.3049v15.7766h4.26v-15.0978c0-1.2068 1.107-2.1999 2.484-2.1999h28.764v-3.3564h-29.999c-3.038 0-5.509 2.1873-5.509 4.8775z"/><path d="m161.909 17.748h-28.21v3.1805h28.21z"/></g></svg>